<svg width="72" height="20" viewBox="0 0 72 20" fill="none" xmlns="http://www.w3.org/2000/svg">
<g clip-path="url(#clip0_322_780)">
<path d="M20.2828 19.9576H18.5381V16.8688H20.2828V17.2232H18.956V18.1795H20.2314V18.5345H18.956V19.5976H20.2828V19.9576ZM24.633 18.3795C24.633 18.522 24.6221 18.6638 24.5996 18.8045C24.5783 18.9342 24.5416 19.0611 24.4903 19.1826C24.4414 19.2973 24.3755 19.4044 24.2949 19.5007C24.2123 19.5982 24.1129 19.6809 24.0011 19.7451C23.8753 19.8165 23.7392 19.8694 23.5974 19.902C23.4261 19.941 23.2506 19.9596 23.0748 19.9576H22.4152V16.8688H23.2072C23.6868 16.8688 24.0442 16.9932 24.2795 17.2413C24.5148 17.4901 24.633 17.8695 24.633 18.3795ZM24.194 18.4095C24.1975 18.2228 24.1772 18.0363 24.1335 17.8545C24.1008 17.72 24.0371 17.5946 23.9471 17.4876C23.8634 17.3947 23.7558 17.3253 23.6353 17.2863C23.4925 17.2418 23.343 17.2205 23.193 17.2232H22.8337V19.5926H23.1468C23.8449 19.5932 24.1946 19.1988 24.194 18.4095ZM28.7795 18.8826C28.7816 19.0389 28.7575 19.1945 28.7081 19.3432C28.6644 19.4745 28.5924 19.5945 28.4973 19.6951C28.4031 19.7938 28.2873 19.8707 28.1585 19.9201C28.0114 19.9754 27.8546 20.0024 27.6969 19.9995C27.5316 20.0033 27.3669 19.9779 27.2109 19.9245C27.086 19.8788 26.9742 19.8047 26.885 19.7082C26.7994 19.6124 26.7368 19.4992 26.7018 19.377C26.6616 19.2366 26.6422 19.0914 26.6439 18.9457V16.8688H27.0624V18.9126C27.0611 19.0195 27.0727 19.1263 27.0965 19.2313C27.1158 19.3151 27.1537 19.3938 27.2083 19.4607C27.2623 19.5232 27.3311 19.5713 27.4095 19.5995C27.506 19.6332 27.6088 19.6495 27.7117 19.647C27.9335 19.647 28.0974 19.582 28.2035 19.4532C28.3083 19.3238 28.3623 19.1426 28.3623 18.9076V16.8688H28.7801V18.8826H28.7795ZM32.9272 19.8413C32.6829 19.9445 32.4193 19.9963 32.1545 19.9957C31.7205 19.9957 31.3869 19.8651 31.1529 19.6038C30.9189 19.3432 30.8025 18.9576 30.8045 18.4476C30.8014 18.2204 30.8339 17.994 30.9009 17.7763C30.957 17.5906 31.0503 17.4175 31.1754 17.267C31.293 17.1288 31.4409 17.0182 31.6074 16.9438C31.7868 16.8663 31.9803 16.8282 32.1757 16.8307C32.3094 16.8295 32.4425 16.8426 32.573 16.8682C32.6951 16.892 32.8128 16.9295 32.9259 16.9807V17.3932C32.7022 17.266 32.447 17.2005 32.1879 17.2038C32.0525 17.2019 31.9184 17.2299 31.7958 17.2857C31.6787 17.3403 31.5771 17.4215 31.4994 17.5226C31.4126 17.6351 31.349 17.7638 31.311 17.9001C31.2647 18.0659 31.2424 18.2371 31.2448 18.4088C31.2448 18.8101 31.3258 19.1113 31.4872 19.3138C31.6479 19.5163 31.8851 19.6176 32.1963 19.6182C32.324 19.6188 32.4513 19.6033 32.5749 19.572C32.6951 19.5407 32.8121 19.4976 32.9233 19.4426L32.9272 19.8413ZM37.44 19.9576H36.9836L36.7708 19.2838H35.4909L35.273 19.9576H34.8378L35.8567 16.8688H36.4301L37.4394 19.9576H37.44ZM36.6506 18.9088L36.1312 17.2563L35.6118 18.9082H36.6506V18.9088ZM41.132 17.2282H40.2236V19.9576H39.8025V17.2282H38.8916V16.8688H41.1326V17.2282H41.132ZM43.9059 17.2232H43.1987V16.8688H45.0354V17.2232H44.3283V19.5982H45.0354V19.9576H43.1987V19.5988H43.9059V17.2232ZM49.3297 18.3951C49.3348 18.6388 49.302 18.8807 49.2326 19.1138C49.178 19.2951 49.0892 19.4651 48.971 19.6138C48.8677 19.7399 48.7347 19.84 48.5833 19.9057C48.4277 19.9712 48.2596 20.004 48.09 20.0021C47.9204 20.0002 47.7531 19.9635 47.5991 19.8945C47.4523 19.8227 47.3268 19.7155 47.2346 19.5832C47.1315 19.4331 47.0587 19.2654 47.0199 19.0888C46.9702 18.8729 46.9465 18.652 46.9492 18.4307C46.9447 18.1895 46.9772 17.9489 47.0456 17.717C47.0996 17.5357 47.1883 17.3657 47.3073 17.217C47.4101 17.0907 47.5432 16.9901 47.693 16.9238C47.8408 16.8601 47.9996 16.8276 48.161 16.8282C48.3393 16.8242 48.516 16.8615 48.6765 16.937C48.8225 17.0095 48.9478 17.1163 49.0423 17.2482C49.1452 17.397 49.2197 17.5638 49.2596 17.7407C49.3091 17.9551 49.3329 18.1751 49.3303 18.3951H49.3297ZM48.8945 18.4257C48.8955 18.259 48.8817 18.0926 48.8533 17.9282C48.8306 17.793 48.7857 17.6621 48.7202 17.5407C48.6651 17.4383 48.5842 17.3512 48.485 17.2876C48.38 17.2259 48.2591 17.1949 48.1365 17.1982C48.0159 17.1948 47.8972 17.2283 47.7971 17.2938C47.6995 17.3609 47.6196 17.4493 47.5637 17.552C47.4982 17.6729 47.4522 17.803 47.4275 17.9376C47.3973 18.092 47.3825 18.2488 47.3838 18.4063C47.3838 18.5738 47.3979 18.7413 47.4275 18.9063C47.4513 19.0413 47.4963 19.1726 47.5605 19.2938C47.6158 19.3963 47.6962 19.4826 47.7945 19.5457C47.898 19.6075 48.0177 19.6386 48.1391 19.6351C48.2605 19.6382 48.38 19.6048 48.4811 19.5395C48.5788 19.4732 48.6598 19.3845 48.717 19.2813C48.782 19.1607 48.8283 19.0313 48.854 18.8976C48.8839 18.7412 48.8979 18.5823 48.8957 18.4232L48.8945 18.4257ZM53.4401 19.9576H52.8956L52.0001 18.0313L51.743 17.4126V19.9576H51.3508V16.8688H51.8889L52.7413 18.6926L53.0486 19.4001V16.8688H53.4407L53.4401 19.9576ZM25.1557 6.05447L26.4363 9.1151H23.8648L23.3737 10.2801H26.9853L28.4793 13.7795H30.0118L25.9098 4.26697L25.1557 6.05447ZM10.9222 2.6626H6.36304V13.7795H7.81718V3.8276H10.6072C13.3573 3.8276 14.7324 5.1901 14.7324 7.91635C14.7324 11.0476 13.3567 12.6126 10.6072 12.6126H8.99554V13.7782H10.9203C14.4303 13.7782 16.1853 11.8245 16.1853 7.91635C16.1853 4.41447 14.4303 2.66322 10.9209 2.6626H10.9222ZM34.1165 2.6626V13.7795H35.4703V4.90135L42.2415 13.7795H43.6725V13.2663L35.5475 2.6626H34.1171H34.1165ZM42.3193 9.57822L43.6725 11.3176V2.6626H42.3187V9.57822H42.3193ZM53.3507 2.6626H51.975V13.7795H53.3507V2.6626ZM56.5136 2.6626V4.02197H60.6787V13.7795H62.0537V4.02197H66.2182V2.6626H56.5136Z" fill="#40404B"/>
<path d="M0 16.4419V0H2.97386V1.30125H1.31529V15.14H2.97386V16.4406L1.38471 16.4419H0Z" fill="url(#paint0_linear_322_780)"/>
<path d="M69.0255 15.14H70.6847L70.6841 1.3025L69.0255 1.30125V0.00125H70.7272L72 0V16.4406H69.0255V15.14Z" fill="url(#paint1_linear_322_780)"/>
<path d="M18.837 13.7795H20.3458L25.218 2.6626H23.607L18.837 13.7795Z" fill="url(#paint2_linear_322_780)"/>
<path d="M48.4682 12.4187H47.0925V13.7793H48.4682V12.4187Z" fill="url(#paint3_linear_322_780)"/>
</g>
<defs>
<linearGradient id="paint0_linear_322_780" x1="1.48693" y1="17.9906" x2="1.48693" y2="0.329999" gradientUnits="userSpaceOnUse">
<stop stop-color="#4657A3"/>
<stop offset="1" stop-color="#68C0AE"/>
</linearGradient>
<linearGradient id="paint1_linear_322_780" x1="4885.06" y1="6865.81" x2="4885.06" y2="125.936" gradientUnits="userSpaceOnUse">
<stop stop-color="#4657A3"/>
<stop offset="1" stop-color="#68C0AE"/>
</linearGradient>
<linearGradient id="paint2_linear_322_780" x1="3246.5" y1="4645.18" x2="3246.5" y2="87.8178" gradientUnits="userSpaceOnUse">
<stop stop-color="#4657A3"/>
<stop offset="1" stop-color="#68C0AE"/>
</linearGradient>
<linearGradient id="paint3_linear_322_780" x1="1556" y1="580.388" x2="1556" y2="22.8369" gradientUnits="userSpaceOnUse">
<stop stop-color="#4657A3"/>
<stop offset="1" stop-color="#68C0AE"/>
</linearGradient>
<clipPath id="clip0_322_780">
<rect width="72" height="20" fill="white"/>
</clipPath>
</defs>
</svg>
