<svg width="72" height="20" viewBox="0 0 72 20" fill="none" xmlns="http://www.w3.org/2000/svg">
<g clip-path="url(#clip0_324_432)">
<path d="M20.2828 19.9575H18.5381V16.8687H20.2828V17.2231H18.956V18.1793H20.2314V18.5343H18.956V19.5975H20.2828V19.9575ZM24.633 18.3793C24.633 18.5218 24.6221 18.6637 24.5996 18.8043C24.5783 18.9341 24.5416 19.0609 24.4903 19.1825C24.4414 19.2972 24.3755 19.4043 24.2949 19.5006C24.2123 19.5981 24.1129 19.6808 24.0011 19.745C23.8753 19.8164 23.7392 19.8693 23.5974 19.9018C23.4261 19.9408 23.2506 19.9595 23.0748 19.9575H22.4152V16.8687H23.2072C23.6868 16.8687 24.0442 16.9931 24.2795 17.2412C24.5148 17.49 24.633 17.8693 24.633 18.3793ZM24.194 18.4093C24.1975 18.2226 24.1772 18.0362 24.1335 17.8543C24.1008 17.7199 24.0371 17.5944 23.9471 17.4875C23.8634 17.3946 23.7558 17.3251 23.6353 17.2862C23.4925 17.2417 23.343 17.2203 23.193 17.2231H22.8337V19.5925H23.1468C23.8449 19.5931 24.1946 19.1987 24.194 18.4093ZM28.7795 18.8825C28.7816 19.0388 28.7575 19.1943 28.7081 19.3431C28.6644 19.4743 28.5924 19.5943 28.4973 19.695C28.4031 19.7937 28.2873 19.8706 28.1585 19.92C28.0114 19.9753 27.8546 20.0022 27.6969 19.9993C27.5316 20.0032 27.3669 19.9778 27.2109 19.9243C27.086 19.8787 26.9742 19.8045 26.885 19.7081C26.7994 19.6123 26.7368 19.4991 26.7018 19.3768C26.6616 19.2365 26.6422 19.0913 26.6439 18.9456V16.8687H27.0624V18.9125C27.0611 19.0193 27.0727 19.1262 27.0965 19.2312C27.1158 19.315 27.1537 19.3937 27.2083 19.4606C27.2623 19.5231 27.3311 19.5712 27.4095 19.5993C27.506 19.6331 27.6088 19.6493 27.7117 19.6468C27.9335 19.6468 28.0974 19.5818 28.2035 19.4531C28.3083 19.3237 28.3623 19.1425 28.3623 18.9075V16.8687H28.7801V18.8825H28.7795ZM32.9272 19.8412C32.6829 19.9443 32.4193 19.9962 32.1545 19.9956C31.7205 19.9956 31.3869 19.865 31.1529 19.6037C30.9189 19.3431 30.8025 18.9575 30.8045 18.4475C30.8014 18.2203 30.8339 17.9939 30.9009 17.7762C30.957 17.5905 31.0503 17.4174 31.1754 17.2668C31.293 17.1287 31.4409 17.0181 31.6074 16.9437C31.7868 16.8662 31.9803 16.8281 32.1757 16.8306C32.3094 16.8293 32.4425 16.8425 32.573 16.8681C32.6951 16.8918 32.8128 16.9293 32.9259 16.9806V17.3931C32.7022 17.2659 32.447 17.2004 32.1879 17.2037C32.0525 17.2017 31.9184 17.2297 31.7958 17.2856C31.6787 17.3401 31.5771 17.4214 31.4994 17.5225C31.4126 17.635 31.349 17.7637 31.311 17.9C31.2647 18.0657 31.2424 18.237 31.2448 18.4087C31.2448 18.81 31.3258 19.1112 31.4872 19.3137C31.6479 19.5162 31.8851 19.6175 32.1963 19.6181C32.324 19.6187 32.4513 19.6032 32.5749 19.5718C32.6951 19.5406 32.8121 19.4975 32.9233 19.4425L32.9272 19.8412ZM37.44 19.9575H36.9836L36.7708 19.2837H35.4909L35.273 19.9575H34.8378L35.8567 16.8687H36.4301L37.4394 19.9575H37.44ZM36.6506 18.9087L36.1312 17.2562L35.6118 18.9081H36.6506V18.9087ZM41.132 17.2281H40.2236V19.9575H39.8025V17.2281H38.8916V16.8687H41.1326V17.2281H41.132ZM43.9059 17.2231H43.1987V16.8687H45.0354V17.2231H44.3283V19.5981H45.0354V19.9575H43.1987V19.5987H43.9059V17.2231ZM49.3297 18.395C49.3348 18.6387 49.302 18.8806 49.2326 19.1137C49.178 19.295 49.0892 19.465 48.971 19.6137C48.8677 19.7398 48.7347 19.8399 48.5833 19.9056C48.4277 19.9711 48.2596 20.0039 48.09 20.002C47.9204 20 47.7531 19.9634 47.5991 19.8943C47.4523 19.8225 47.3268 19.7154 47.2346 19.5831C47.1315 19.433 47.0587 19.2652 47.0199 19.0887C46.9702 18.8727 46.9465 18.6519 46.9492 18.4306C46.9447 18.1893 46.9772 17.9488 47.0456 17.7168C47.0996 17.5356 47.1883 17.3656 47.3073 17.2168C47.4101 17.0906 47.5432 16.99 47.693 16.9237C47.8408 16.86 47.9996 16.8275 48.161 16.8281C48.3393 16.8241 48.516 16.8614 48.6765 16.9368C48.8225 17.0093 48.9478 17.1162 49.0423 17.2481C49.1452 17.3968 49.2197 17.5637 49.2596 17.7406C49.3091 17.955 49.3329 18.175 49.3303 18.395H49.3297ZM48.8945 18.4256C48.8955 18.2589 48.8817 18.0925 48.8533 17.9281C48.8306 17.7928 48.7857 17.662 48.7202 17.5406C48.6651 17.4382 48.5842 17.3511 48.485 17.2875C48.38 17.2258 48.2591 17.1948 48.1365 17.1981C48.0159 17.1947 47.8972 17.2281 47.7971 17.2937C47.6995 17.3607 47.6196 17.4492 47.5637 17.5518C47.4982 17.6728 47.4522 17.8029 47.4275 17.9375C47.3973 18.0918 47.3825 18.2487 47.3838 18.4062C47.3838 18.5737 47.3979 18.7412 47.4275 18.9062C47.4513 19.0412 47.4963 19.1725 47.5605 19.2937C47.6158 19.3962 47.6962 19.4825 47.7945 19.5456C47.898 19.6074 48.0177 19.6384 48.1391 19.635C48.2605 19.6381 48.38 19.6047 48.4811 19.5393C48.5788 19.4731 48.6598 19.3843 48.717 19.2812C48.782 19.1606 48.8283 19.0312 48.854 18.8975C48.8839 18.7411 48.8979 18.5822 48.8957 18.4231L48.8945 18.4256ZM53.4401 19.9575H52.8956L52.0001 18.0312L51.743 17.4125V19.9575H51.3508V16.8687H51.8889L52.7413 18.6925L53.0486 19.4V16.8687H53.4407L53.4401 19.9575ZM25.1557 6.05435L26.4363 9.11497H23.8648L23.3737 10.28H26.9853L28.4793 13.7794H30.0118L25.9098 4.26685L25.1557 6.05435ZM10.9222 2.66248H6.36304V13.7794H7.81718V3.82748H10.6072C13.3573 3.82748 14.7324 5.18998 14.7324 7.91622C14.7324 11.0475 13.3567 12.6125 10.6072 12.6125H8.99554V13.7781H10.9203C14.4303 13.7781 16.1853 11.8243 16.1853 7.91622C16.1853 4.41435 14.4303 2.6631 10.9209 2.66248H10.9222ZM34.1165 2.66248V13.7794H35.4703V4.90123L42.2415 13.7794H43.6725V13.2662L35.5475 2.66248H34.1171H34.1165ZM42.3193 9.5781L43.6725 11.3175V2.66248H42.3187V9.5781H42.3193ZM53.3507 2.66248H51.975V13.7794H53.3507V2.66248ZM56.5136 2.66248V4.02185H60.6787V13.7794H62.0537V4.02185H66.2182V2.66248H56.5136Z" fill="#40404B"/>
<path d="M0 16.4419V0H2.97386V1.30125H1.31529V15.14H2.97386V16.4406L1.38471 16.4419H0Z" fill="url(#paint0_linear_324_432)"/>
<path d="M69.0254 15.14H70.6846L70.684 1.3025L69.0254 1.30125V0.00125H70.727L71.9999 0V16.4406H69.0254V15.14Z" fill="url(#paint1_linear_324_432)"/>
<path d="M18.8369 13.7794H20.3457L25.2179 2.66248H23.6069L18.8369 13.7794Z" fill="url(#paint2_linear_324_432)"/>
<path d="M48.4682 12.4188H47.0925V13.7794H48.4682V12.4188Z" fill="url(#paint3_linear_324_432)"/>
</g>
<defs>
<linearGradient id="paint0_linear_324_432" x1="1.48693" y1="17.9906" x2="1.48693" y2="0.329999" gradientUnits="userSpaceOnUse">
<stop stop-color="#4657A3"/>
<stop offset="1" stop-color="#68C0AE"/>
</linearGradient>
<linearGradient id="paint1_linear_324_432" x1="4885.06" y1="6865.81" x2="4885.06" y2="125.936" gradientUnits="userSpaceOnUse">
<stop stop-color="#4657A3"/>
<stop offset="1" stop-color="#68C0AE"/>
</linearGradient>
<linearGradient id="paint2_linear_324_432" x1="3246.5" y1="4645.18" x2="3246.5" y2="87.8177" gradientUnits="userSpaceOnUse">
<stop stop-color="#4657A3"/>
<stop offset="1" stop-color="#68C0AE"/>
</linearGradient>
<linearGradient id="paint3_linear_324_432" x1="1556" y1="580.388" x2="1556" y2="22.8369" gradientUnits="userSpaceOnUse">
<stop stop-color="#4657A3"/>
<stop offset="1" stop-color="#68C0AE"/>
</linearGradient>
<clipPath id="clip0_324_432">
<rect width="72" height="20" fill="white"/>
</clipPath>
</defs>
</svg>
