<svg width="36" height="36" viewBox="0 0 36 36" fill="none" xmlns="http://www.w3.org/2000/svg">
<rect x="0.493408" y="0.496582" width="35.0067" height="35.0067" fill="#0F8277"/>
<path fill-rule="evenodd" clip-rule="evenodd" d="M21.3489 20.447L26.0001 25.0981L25.095 26.0032L20.4438 21.3521C19.3405 22.2549 17.9302 22.7966 16.3934 22.7966C12.8588 22.7966 9.99341 19.9312 9.99341 16.3966C9.99341 12.862 12.8588 9.99658 16.3934 9.99658C19.928 9.99658 22.7934 12.862 22.7934 16.3966C22.7934 17.9334 22.2517 19.3437 21.3489 20.447ZM16.3934 21.5166C19.2211 21.5166 21.5134 19.2243 21.5134 16.3966C21.5134 13.5689 19.2211 11.2766 16.3934 11.2766C13.5657 11.2766 11.2734 13.5689 11.2734 16.3966C11.2734 19.2243 13.5657 21.5166 16.3934 21.5166Z" fill="#EEEEEE"/>
<rect x="0.493408" y="0.496582" width="35.0067" height="35.0067" stroke="#5C5C5C"/>
</svg>
